<svg xmlns="http://www.w3.org/2000/svg" version="1.1" xmlns:xlink="http://www.w3.org/1999/xlink" xmlns:svgjs="http://svgjs.dev/svgjs" width="2000" height="479" viewBox="0 0 2000 479"><g transform="matrix(1,0,0,1,-1.2121212121212466,-0.3445171430343805)"><svg viewBox="0 0 396 95" data-background-color="#ffffff" preserveAspectRatio="xMidYMid meet" height="479" width="2000" xmlns="http://www.w3.org/2000/svg" xmlns:xlink="http://www.w3.org/1999/xlink"><g id="tight-bounds" transform="matrix(1,0,0,1,0.2400000000000091,0.06832803463103687)"><svg viewBox="0 0 395.52 94.86334393073791" height="94.86334393073791" width="395.52"><g><svg viewBox="0 0 554.4949536999566 132.9926312214239" height="94.86334393073791" width="395.52"><g transform="matrix(1,0,0,1,158.97495369995664,18.380312998040502)"><svg viewBox="0 0 395.52 96.23200522534289" height="96.23200522534289" width="395.52"><g id="textblocktransform"><svg viewBox="0 0 395.52 96.23200522534289" height="96.23200522534289" width="395.52" id="textblock"><g><svg viewBox="0 0 395.52 96.23200522534289" height="96.23200522534289" width="395.52"><g transform="matrix(1,0,0,1,0,0)"><svg width="395.52" viewBox="3.05 -36.75 153.08999999999997 37.25" height="96.23200522534289" data-palette-color="#f77f00"><g class="wordmark-text-0" data-fill-palette-color="primary" id="text-0"><path d="M3.95 0L3.95-22.95 9.55-22.95 9.55 0 3.95 0ZM6.7-27.25Q5.15-27.25 4.1-28.3 3.05-29.35 3.05-30.9L3.05-30.9Q3.05-32.3 4.1-33.3 5.15-34.3 6.7-34.3L6.7-34.3Q8.2-34.3 9.25-33.3 10.3-32.3 10.3-30.9L10.3-30.9Q10.3-29.35 9.28-28.3 8.25-27.25 6.7-27.25L6.7-27.25ZM27.2 0.5Q24.1 0.5 21.47-0.98 18.85-2.45 17.27-5.18 15.7-7.9 15.7-11.55L15.7-11.55Q15.7-17 18.75-20.28 21.8-23.55 27-23.55L27-23.55Q29.9-23.55 32.3-22.13 34.7-20.7 35.55-18.7L35.55-18.7 35.3-22.6 35.3-36.75 40.6-36.75 40.6 0 35.45 0 35.35-4.05Q34.5-2.25 32.25-0.88 30 0.5 27.2 0.5L27.2 0.5ZM28.1-4.05Q30.95-4.05 32.9-6.03 34.85-8 34.85-11.2L34.85-11.2 34.85-11.55Q34.85-13.7 33.95-15.4 33.05-17.1 31.5-18.05 29.95-19 28.1-19L28.1-19Q24.9-19 23.15-16.93 21.4-14.85 21.4-11.55L21.4-11.55Q21.4-8.2 23.12-6.13 24.85-4.05 28.1-4.05L28.1-4.05ZM58.6 0.5Q54.5 0.5 51.75-1.13 49-2.75 47.7-5.48 46.4-8.2 46.4-11.45L46.4-11.45Q46.4-15.1 47.92-17.85 49.45-20.6 52.15-22.08 54.85-23.55 58.25-23.55L58.25-23.55Q63.55-23.55 66.12-20.63 68.7-17.7 68.7-12.4L68.7-12.4Q68.7-11.05 68.55-9.6L68.55-9.6 52.05-9.6Q52.6-6.55 54.22-5.2 55.85-3.85 58.75-3.85L58.75-3.85Q61.15-3.85 62.7-4.25 64.25-4.65 65.55-5.35L65.55-5.35 67.2-1.5Q65.95-0.7 63.8-0.1 61.65 0.5 58.6 0.5L58.6 0.5ZM52.05-13.35L63.45-13.35Q63.5-16.45 62.1-17.73 60.7-19 58.1-19L58.1-19Q52.85-19 52.05-13.35L52.05-13.35ZM84.49 0.5Q81.39 0.5 78.77-0.98 76.14-2.45 74.57-5.18 72.99-7.9 72.99-11.55L72.99-11.55Q72.99-15.15 74.37-17.85 75.74-20.55 78.29-22.05 80.84-23.55 84.29-23.55L84.29-23.55Q86.29-23.55 88.04-22.85 89.79-22.15 90.99-21.13 92.19-20.1 92.59-19.1L92.59-19.1 92.69-22.95 97.84-22.95 97.84 0 92.74 0 92.64-4.05Q91.79-2.25 89.54-0.88 87.29 0.5 84.49 0.5L84.49 0.5ZM85.39-4Q88.24-4 90.19-5.98 92.14-7.95 92.14-11.15L92.14-11.15 92.14-11.5Q92.14-13.65 91.24-15.35 90.34-17.05 88.79-18 87.24-18.95 85.39-18.95L85.39-18.95Q82.19-18.95 80.44-16.88 78.69-14.8 78.69-11.5L78.69-11.5Q78.69-8.15 80.42-6.08 82.14-4 85.39-4L85.39-4ZM107.09 0L107.09-18.55 103.04-18.55 103.04-22.95 107.09-22.95 107.09-32.3 112.54-33.5 112.54-22.95 117.84-22.95 117.84-18.55 112.54-18.55 112.54 0 107.09 0ZM133.09 0.5Q128.99 0.5 126.24-1.13 123.49-2.75 122.19-5.48 120.89-8.2 120.89-11.45L120.89-11.45Q120.89-15.1 122.41-17.85 123.94-20.6 126.64-22.08 129.34-23.55 132.74-23.55L132.74-23.55Q138.04-23.55 140.61-20.63 143.19-17.7 143.19-12.4L143.19-12.4Q143.19-11.05 143.04-9.6L143.04-9.6 126.54-9.6Q127.09-6.55 128.71-5.2 130.34-3.85 133.24-3.85L133.24-3.85Q135.64-3.85 137.19-4.25 138.74-4.65 140.04-5.35L140.04-5.35 141.69-1.5Q140.44-0.7 138.29-0.1 136.14 0.5 133.09 0.5L133.09 0.5ZM126.54-13.35L137.94-13.35Q137.99-16.45 136.59-17.73 135.19-19 132.59-19L132.59-19Q127.34-19 126.54-13.35L126.54-13.35ZM152.54 0.5Q151.04 0.5 149.99-0.53 148.94-1.55 148.94-3.05L148.94-3.05Q148.94-4.6 149.96-5.63 150.99-6.65 152.54-6.65L152.54-6.65Q154.09-6.65 155.11-5.63 156.14-4.6 156.14-3.05L156.14-3.05Q156.14-1.55 155.11-0.53 154.09 0.5 152.54 0.5L152.54 0.5Z" fill="#f77f00" data-fill-palette-color="primary"></path></g></svg></g></svg></g></svg></g></svg></g><g><svg viewBox="0 0 136.2568868343786 132.9926312214239" height="132.9926312214239" width="136.2568868343786"><g><svg xmlns="http://www.w3.org/2000/svg" xmlns:xlink="http://www.w3.org/1999/xlink" version="1.1" x="0" y="0" viewBox="19.403705026499075 26.71765882202151 41.709722979074606 40.71049864251154" enable-background="new 0 0 100 100" xml:space="preserve" height="132.9926312214239" width="136.2568868343786" class="icon-icon-0" data-fill-palette-color="accent" id="icon-0"><g fill="#ef233c" data-fill-palette-color="accent"><path fill="#ef233c" d="M61.087 65.102c0 0-0.021-0.125-0.06-0.367-0.036-0.241-0.108-0.603-0.23-1.077-0.264-0.92-0.723-2.442-2.194-3.928-0.723-0.728-1.699-1.37-2.791-1.789-1.093-0.428-2.286-0.652-3.498-0.724-2.434-0.145-4.971 0.257-7.583 0.883-0.176 0.042-0.356 0.094-0.533 0.139 0.36-0.348 0.718-0.694 1.085-1.049 1.159-1.129 2.344-2.274 3.543-3.581 0.604-0.681 1.195-1.309 1.85-2.338 0.159-0.25 0.34-0.574 0.514-1.003l0.132-0.398 0.057-0.202c0.021-0.077 0.06-0.32 0.071-0.482 0.03-0.363 0.003-0.742-0.069-1.085l-0.055-0.228-0.01-0.038c0.078 0.161-0.496-1.172-0.395-0.826-0.186-0.274-0.458-0.554-0.684-0.72-0.195-0.143-0.412-0.27-0.636-0.369-0.265-0.117-0.324-0.119-0.492-0.169-0.137-0.036-0.306-0.07-0.42-0.085l-0.278-0.025c-0.207-0.014-0.342-0.01-0.462-0.004-0.523 0.027-0.822 0.095-1.123 0.157-1.13 0.263-1.943 0.567-2.802 0.877-0.842 0.311-1.653 0.633-2.457 0.959-1.58 0.654-3.166 1.312-4.752 1.969-2.419 1-4.841 1.997-7.187 2.82 1.172-1.105 2.403-2.18 3.587-3.189 2.182-1.845 4.32-3.545 6.314-5.093 3.993-3.095 7.413-5.59 9.81-7.322 2.401-1.708 3.773-2.683 3.773-2.683l0.076-0.054c0.037-0.026 0.073-0.053 0.109-0.081 1.777-1.368 2.109-3.918 0.742-5.695-1.368-1.778-3.918-2.109-5.695-0.741 0 0-1.371 1.056-3.772 2.903-2.378 1.858-5.757 4.524-9.738 7.857-1.99 1.669-4.128 3.504-6.353 5.533-1.112 1.016-2.245 2.082-3.388 3.225-1.143 1.153-2.294 2.349-3.447 3.812-0.575 0.761-1.16 1.502-1.749 2.801-0.143 0.342-0.292 0.727-0.4 1.273-0.051 0.28-0.097 0.558-0.092 0.965-0.012 0.332 0.06 0.84 0.191 1.284-0.004 0.008 0.243 0.649 0.145 0.389l0.016 0.035 0.032 0.07 0.075 0.156c0.072 0.142 0.153 0.282 0.241 0.418 0.403 0.609 0.677 0.811 1.031 1.103 0.683 0.498 1.296 0.689 1.809 0.814 0.998 0.207 1.654 0.148 2.268 0.1 0.605-0.06 1.119-0.162 1.617-0.272 0.991-0.224 1.872-0.504 2.739-0.797 3.421-1.195 6.548-2.648 9.679-4.078 0.391-0.18 0.781-0.359 1.173-0.539-0.73 0.761-1.463 1.517-2.181 2.293-0.541 0.589-1.076 1.182-1.612 1.837-0.268 0.326-0.54 0.681-0.821 1.092-0.149 0.236-0.289 0.438-0.458 0.791-0.043 0.091-0.071 0.133-0.123 0.266-0.05 0.129-0.095 0.26-0.135 0.393-0.072 0.141-0.184 0.857-0.106 1.339 0.26 1.001 0.079 0.296 0.141 0.528l0.012 0.032c-0.034-0.081 0.11 0.28 0.221 0.44 0.124 0.201 0.279 0.39 0.449 0.55 0.188 0.176 0.355 0.284 0.41 0.314 0.09 0.054 0.183 0.105 0.279 0.15 0.096 0.045 0.193 0.086 0.291 0.12 0.096 0.034 0.128 0.039 0.196 0.058 0.12 0.03 0.241 0.055 0.363 0.073 0.12 0.017 0.165 0.016 0.251 0.023 0.164 0.01 0.306 0.008 0.396 0.001 0.441-0.025 0.685-0.083 0.933-0.134 0.478-0.107 0.857-0.222 1.229-0.336 0.695-0.229 1.38-0.455 2.053-0.677 1.299-0.439 2.521-0.839 3.694-1.168 2.335-0.661 4.48-1.045 6.212-1.001 1.754 0.027 2.921 0.521 3.589 1.143 0.69 0.621 1.015 1.437 1.201 2.023 0.178 0.595 0.23 0.952 0.23 0.952 0.001 0.007 0.004 0.026 0.005 0.034 0.178 1.09 1.205 1.83 2.295 1.653C60.525 67.22 61.265 66.192 61.087 65.102zM37.797 59.978l0.028 0C37.777 59.984 37.751 59.985 37.797 59.978z" data-fill-palette-color="accent"></path></g></svg></g></svg></g></svg></g><defs></defs></svg><rect width="395.52" height="94.86334393073791" fill="none" stroke="none" visibility="hidden"></rect></g></svg></g></svg>